<svg xmlns="http://www.w3.org/2000/svg" xmlns:xlink="http://www.w3.org/1999/xlink" width="500" zoomAndPan="magnify" viewBox="0 0 375 374.999991" height="500" preserveAspectRatio="xMidYMid meet" version="1.0"><defs><clipPath id="f0bfa32a67"><path d="M 18.113281 76.972656 L 357 76.972656 L 357 298.222656 L 18.113281 298.222656 Z M 18.113281 76.972656 " clip-rule="nonzero"/></clipPath><clipPath id="3d42f1641c"><path d="M 24.113281 76.972656 L 350.878906 76.972656 C 352.472656 76.972656 353.996094 77.605469 355.125 78.730469 C 356.25 79.855469 356.878906 81.382812 356.878906 82.972656 L 356.878906 292.023438 C 356.878906 293.613281 356.25 295.140625 355.125 296.265625 C 353.996094 297.390625 352.472656 298.023438 350.878906 298.023438 L 24.113281 298.023438 C 22.523438 298.023438 20.996094 297.390625 19.871094 296.265625 C 18.746094 295.140625 18.113281 293.613281 18.113281 292.023438 L 18.113281 82.972656 C 18.113281 81.382812 18.746094 79.855469 19.871094 78.730469 C 20.996094 77.605469 22.523438 76.972656 24.113281 76.972656 Z M 24.113281 76.972656 " clip-rule="nonzero"/></clipPath></defs><rect x="-37.5" width="450" fill="#ffffff" y="-37.499999" height="449.999989" fill-opacity="1"/><rect x="-37.5" width="450" fill="#ffffff" y="-37.499999" height="449.999989" fill-opacity="1"/><g clip-path="url(#f0bfa32a67)"><g clip-path="url(#3d42f1641c)"><path stroke-linecap="butt" transform="matrix(0.75, 0, 0, 0.75, 18.114863, 76.973952)" fill="none" stroke-linejoin="miter" d="M 7.997891 -0.00172733 L 443.68542 -0.00172733 C 445.81042 -0.00172733 447.84167 0.842023 449.346878 2.342023 C 450.846878 3.842023 451.68542 5.878481 451.68542 7.998273 L 451.68542 286.732667 C 451.68542 288.852458 450.846878 290.888917 449.346878 292.388917 C 447.84167 293.888917 445.81042 294.732667 443.68542 294.732667 L 7.997891 294.732667 C 5.878099 294.732667 3.841641 293.888917 2.341641 292.388917 C 0.84164 290.888917 -0.00210963 288.852458 -0.00210963 286.732667 L -0.00210963 7.998273 C -0.00210963 5.878481 0.84164 3.842023 2.341641 2.342023 C 3.841641 0.842023 5.878099 -0.00172733 7.997891 -0.00172733 Z M 7.997891 -0.00172733 " stroke="#000000" stroke-width="70" stroke-opacity="1" stroke-miterlimit="4"/></g></g></svg>