<svg xmlns="http://www.w3.org/2000/svg" xmlns:xlink="http://www.w3.org/1999/xlink" width="500" zoomAndPan="magnify" viewBox="0 0 375 374.999991" height="500" preserveAspectRatio="xMidYMid meet" version="1.0"><defs><clipPath id="fb89fc5b6e"><path d="M 32.8125 32.8125 L 342.1875 32.8125 L 342.1875 342.1875 L 32.8125 342.1875 Z M 32.8125 32.8125 " clip-rule="nonzero"/></clipPath><clipPath id="6061774a4a"><path d="M 187.5 32.8125 C 102.070312 32.8125 32.8125 102.070312 32.8125 187.5 C 32.8125 272.929688 102.070312 342.1875 187.5 342.1875 C 272.929688 342.1875 342.1875 272.929688 342.1875 187.5 C 342.1875 102.070312 272.929688 32.8125 187.5 32.8125 Z M 187.5 32.8125 " clip-rule="nonzero"/></clipPath></defs><rect x="-37.5" width="450" fill="#ffffff" y="-37.499999" height="449.999989" fill-opacity="1"/><rect x="-37.5" width="450" fill="#ffffff" y="-37.499999" height="449.999989" fill-opacity="1"/><g clip-path="url(#fb89fc5b6e)"><g clip-path="url(#6061774a4a)"><path stroke-linecap="butt" transform="matrix(0.75, 0, 0, 0.75, 32.812502, 32.812498)" fill="none" stroke-linejoin="miter" d="M 206.25001 0.00000287292 C 92.343753 0.00000287292 -0.00000312708 92.343759 -0.00000312708 206.250016 C -0.00000312708 320.156274 92.343753 412.50003 206.25001 412.50003 C 320.156268 412.50003 412.500024 320.156274 412.500024 206.250016 C 412.500024 92.343759 320.156268 0.00000287292 206.25001 0.00000287292 Z M 206.25001 0.00000287292 " stroke="#000000" stroke-width="70" stroke-opacity="1" stroke-miterlimit="4"/></g></g></svg>